<svg xmlns="http://www.w3.org/2000/svg" viewBox="0 0 200 200" fill="none">
  <!-- Shadow -->
  <ellipse cx="100" cy="178" rx="56" ry="8" fill="#000" fill-opacity="0.10"/>
  <!-- Building back -->
  <rect x="118" y="70" width="46" height="90" rx="4" fill="url(#eb)"/>
  <!-- Windows back -->
  <rect x="125" y="80" width="10" height="10" rx="2" fill="#d4d4d8" fill-opacity="0.25"/>
  <rect x="140" y="80" width="10" height="10" rx="2" fill="#d4d4d8" fill-opacity="0.25"/>
  <rect x="125" y="96" width="10" height="10" rx="2" fill="#d4d4d8" fill-opacity="0.25"/>
  <rect x="140" y="96" width="10" height="10" rx="2" fill="#a1a1aa" fill-opacity="0.4"/>
  <rect x="125" y="112" width="10" height="10" rx="2" fill="#d4d4d8" fill-opacity="0.25"/>
  <rect x="140" y="112" width="10" height="10" rx="2" fill="#d4d4d8" fill-opacity="0.25"/>
  <!-- Roof back -->
  <rect x="116" y="64" width="50" height="10" rx="3" fill="url(#ec)"/>
  <!-- Building front (main) -->
  <rect x="36" y="52" width="80" height="110" rx="5" fill="url(#ea)"/>
  <!-- Roof main -->
  <rect x="32" y="44" width="88" height="12" rx="4" fill="url(#ec)"/>
  <!-- Flag pole -->
  <rect x="74" y="26" width="3" height="20" rx="1.5" fill="#71717a"/>
  <rect x="77" y="26" width="14" height="10" rx="2" fill="#52525b"/>
  <!-- Main windows -->
  <rect x="46" y="66" width="16" height="14" rx="2" fill="#d4d4d8" fill-opacity="0.3"/>
  <rect x="68" y="66" width="16" height="14" rx="2" fill="#a1a1aa" fill-opacity="0.4"/>
  <rect x="90" y="66" width="16" height="14" rx="2" fill="#d4d4d8" fill-opacity="0.3"/>
  <rect x="46" y="88" width="16" height="14" rx="2" fill="#d4d4d8" fill-opacity="0.25"/>
  <rect x="68" y="88" width="16" height="14" rx="2" fill="#d4d4d8" fill-opacity="0.3"/>
  <rect x="90" y="88" width="16" height="14" rx="2" fill="#a1a1aa" fill-opacity="0.4"/>
  <rect x="46" y="110" width="16" height="14" rx="2" fill="#a1a1aa" fill-opacity="0.4"/>
  <rect x="90" y="110" width="16" height="14" rx="2" fill="#d4d4d8" fill-opacity="0.25"/>
  <!-- Door -->
  <rect x="67" y="132" width="18" height="30" rx="3" fill="#27272a" fill-opacity="0.5"/>
  <circle cx="82" cy="148" r="2" fill="#71717a"/>
  <!-- Ground line -->
  <rect x="30" y="161" width="140" height="3" rx="1.5" fill="#52525b" fill-opacity="0.2"/>
  <!-- Floating dots -->
  <circle cx="26" cy="80" r="4" fill="#9ca3af" fill-opacity="0.35"/>
  <circle cx="172" cy="60" r="3.5" fill="#d1d5db" fill-opacity="0.4"/>
  <circle cx="168" cy="100" r="2.5" fill="#6b7280" fill-opacity="0.35"/>
  <defs>
    <linearGradient id="ea" x1="36" y1="44" x2="116" y2="162" gradientUnits="userSpaceOnUse">
      <stop stop-color="#3f3f46"/>
      <stop offset="1" stop-color="#18181b"/>
    </linearGradient>
    <linearGradient id="eb" x1="118" y1="64" x2="164" y2="160" gradientUnits="userSpaceOnUse">
      <stop stop-color="#52525b" stop-opacity="0.75"/>
      <stop offset="1" stop-color="#27272a" stop-opacity="0.75"/>
    </linearGradient>
    <linearGradient id="ec" x1="32" y1="44" x2="164" y2="56" gradientUnits="userSpaceOnUse">
      <stop stop-color="#71717a"/>
      <stop offset="1" stop-color="#3f3f46"/>
    </linearGradient>
  </defs>
</svg>
